#N canvas 826 25 473 567 12;
#X obj 77 128 metro 100;
#X obj 39 79 tgl 19 0 empty empty empty 0 -10 0 12 #fcfcfc #000000 #000000 0 1;
#X obj 78 190 bng 19 250 50 0 empty empty empty 0 -10 0 12 #fcfcfc #000000 #000000;
#X text 73 79 toggle;
#X msg 149 77 1;
#X msg 205 76 0;
#X msg 207 36 stop;
#X floatatom 260 324 5 0 0 0 - - - 0;
#X obj 292 108 vsl 19 162 100 2000 0 0 empty empty empty 0 -9 0 12 #fcfcfc #000000 #000000 0 1;
#X obj 77 301 print;
#X msg 78 247 hello world!!!;
#X connect 0 0 2 0;
#X connect 1 0 0 0;
#X connect 2 0 10 0;
#X connect 4 0 0 0;
#X connect 5 0 0 0;
#X connect 6 0 0 0;
#X connect 7 0 0 1;
#X connect 8 0 7 0;
#X connect 10 0 9 0;
