{
	"patcher" : 	{
		"fileversion" : 1,
		"appversion" : 		{
			"major" : 8,
			"minor" : 5,
			"revision" : 2,
			"architecture" : "x64",
			"modernui" : 1
		}
,
		"classnamespace" : "box",
		"rect" : [ 609.0, 190.0, 1026.0, 790.0 ],
		"bglocked" : 0,
		"openinpresentation" : 0,
		"default_fontsize" : 12.0,
		"default_fontface" : 0,
		"default_fontname" : "Arial",
		"gridonopen" : 1,
		"gridsize" : [ 15.0, 15.0 ],
		"gridsnaponopen" : 1,
		"objectsnaponopen" : 1,
		"statusbarvisible" : 2,
		"toolbarvisible" : 1,
		"lefttoolbarpinned" : 0,
		"toptoolbarpinned" : 0,
		"righttoolbarpinned" : 0,
		"bottomtoolbarpinned" : 0,
		"toolbars_unpinned_last_save" : 0,
		"tallnewobj" : 0,
		"boxanimatetime" : 200,
		"enablehscroll" : 1,
		"enablevscroll" : 1,
		"devicewidth" : 0.0,
		"description" : "",
		"digest" : "",
		"tags" : "",
		"style" : "",
		"subpatcher_template" : "",
		"assistshowspatchername" : 0,
		"boxes" : [ 			{
				"box" : 				{
					"id" : "obj-36",
					"maxclass" : "button",
					"numinlets" : 1,
					"numoutlets" : 1,
					"outlettype" : [ "bang" ],
					"parameter_enable" : 0,
					"patching_rect" : [ 587.0, 109.0, 24.0, 24.0 ]
				}

			}
, 			{
				"box" : 				{
					"id" : "obj-34",
					"maxclass" : "newobj",
					"numinlets" : 2,
					"numoutlets" : 1,
					"outlettype" : [ "signal" ],
					"patching_rect" : [ 191.0, 462.0, 29.5, 22.0 ],
					"text" : "*~"
				}

			}
, 			{
				"box" : 				{
					"addpoints" : [ 0.0, 0.0, 0, 58.51063829787234, 0.626666666666667, 0, 202.127659574468083, 0.306666666666667, 0, 414.893617021276611, 0.28, 0, 1000.0, 0.0, 0 ],
					"id" : "obj-30",
					"maxclass" : "function",
					"numinlets" : 1,
					"numoutlets" : 4,
					"outlettype" : [ "float", "", "", "bang" ],
					"parameter_enable" : 0,
					"patching_rect" : [ 591.0, 160.0, 200.0, 100.0 ]
				}

			}
, 			{
				"box" : 				{
					"id" : "obj-29",
					"maxclass" : "newobj",
					"numinlets" : 2,
					"numoutlets" : 2,
					"outlettype" : [ "signal", "bang" ],
					"patching_rect" : [ 591.0, 280.0, 34.0, 22.0 ],
					"text" : "line~"
				}

			}
, 			{
				"box" : 				{
					"id" : "obj-28",
					"linecount" : 2,
					"maxclass" : "message",
					"numinlets" : 2,
					"numoutlets" : 1,
					"outlettype" : [ "" ],
					"patching_rect" : [ 332.0, 189.0, 50.0, 35.0 ],
					"text" : "82.406889"
				}

			}
, 			{
				"box" : 				{
					"id" : "obj-16",
					"maxclass" : "message",
					"numinlets" : 2,
					"numoutlets" : 1,
					"outlettype" : [ "" ],
					"patching_rect" : [ 415.0, 180.0, 50.0, 22.0 ],
					"text" : "40"
				}

			}
, 			{
				"box" : 				{
					"id" : "obj-10",
					"maxclass" : "number",
					"numinlets" : 1,
					"numoutlets" : 2,
					"outlettype" : [ "", "bang" ],
					"parameter_enable" : 0,
					"patching_rect" : [ 255.5, 267.0, 50.0, 22.0 ]
				}

			}
, 			{
				"box" : 				{
					"id" : "obj-2",
					"maxclass" : "newobj",
					"numinlets" : 1,
					"numoutlets" : 1,
					"outlettype" : [ "" ],
					"patching_rect" : [ 261.0, 150.0, 32.0, 22.0 ],
					"text" : "mtof"
				}

			}
, 			{
				"box" : 				{
					"id" : "obj-1",
					"maxclass" : "kslider",
					"numinlets" : 2,
					"numoutlets" : 2,
					"outlettype" : [ "int", "int" ],
					"parameter_enable" : 0,
					"patching_rect" : [ 261.0, 36.0, 336.0, 53.0 ]
				}

			}
, 			{
				"box" : 				{
					"annotation" : "",
					"id" : "obj-33",
					"maxclass" : "live.dial",
					"numinlets" : 1,
					"numoutlets" : 2,
					"outlettype" : [ "", "float" ],
					"parameter_enable" : 1,
					"patching_rect" : [ 591.0, 333.0, 44.0, 48.0 ],
					"prototypename" : "amount",
					"saved_attribute_attributes" : 					{
						"valueof" : 						{
							"parameter_initial" : [ 0 ],
							"parameter_initial_enable" : 1,
							"parameter_linknames" : 1,
							"parameter_longname" : "live.dial[1]",
							"parameter_mmax" : 1.0,
							"parameter_shortname" : "Amount",
							"parameter_type" : 0,
							"parameter_unitstyle" : 1
						}

					}
,
					"varname" : "live.dial[1]"
				}

			}
, 			{
				"box" : 				{
					"annotation" : "",
					"id" : "obj-31",
					"maxclass" : "live.dial",
					"numinlets" : 1,
					"numoutlets" : 2,
					"outlettype" : [ "", "float" ],
					"parameter_enable" : 1,
					"patching_rect" : [ 352.0, 325.0, 44.0, 48.0 ],
					"prototypename" : "freq",
					"saved_attribute_attributes" : 					{
						"valueof" : 						{
							"parameter_exponent" : 3.333333,
							"parameter_initial" : [ 0 ],
							"parameter_initial_enable" : 1,
							"parameter_linknames" : 1,
							"parameter_longname" : "live.dial",
							"parameter_mmax" : 10000.0,
							"parameter_shortname" : "Freq",
							"parameter_type" : 0,
							"parameter_unitstyle" : 3
						}

					}
,
					"varname" : "live.dial"
				}

			}
, 			{
				"box" : 				{
					"format" : 6,
					"id" : "obj-21",
					"maxclass" : "flonum",
					"maximum" : 1.0,
					"minimum" : 0.0,
					"numinlets" : 1,
					"numoutlets" : 2,
					"outlettype" : [ "", "bang" ],
					"parameter_enable" : 0,
					"patching_rect" : [ 606.0, 408.0, 50.0, 22.0 ]
				}

			}
, 			{
				"box" : 				{
					"id" : "obj-19",
					"maxclass" : "number",
					"numinlets" : 1,
					"numoutlets" : 2,
					"outlettype" : [ "", "bang" ],
					"parameter_enable" : 0,
					"patching_rect" : [ 360.0, 396.0, 50.0, 22.0 ]
				}

			}
, 			{
				"box" : 				{
					"id" : "obj-17",
					"maxclass" : "newobj",
					"numinlets" : 5,
					"numoutlets" : 1,
					"outlettype" : [ "signal" ],
					"patching_rect" : [ 101.0, 405.0, 165.0, 22.0 ],
					"text" : "selector~ 4"
				}

			}
, 			{
				"box" : 				{
					"id" : "obj-15",
					"maxclass" : "newobj",
					"numinlets" : 3,
					"numoutlets" : 1,
					"outlettype" : [ "signal" ],
					"patching_rect" : [ 455.0, 448.0, 40.0, 22.0 ],
					"text" : "tri~"
				}

			}
, 			{
				"box" : 				{
					"id" : "obj-14",
					"maxclass" : "newobj",
					"numinlets" : 3,
					"numoutlets" : 1,
					"outlettype" : [ "signal" ],
					"patching_rect" : [ 509.0, 448.0, 40.0, 22.0 ],
					"text" : "rect~"
				}

			}
, 			{
				"box" : 				{
					"id" : "obj-13",
					"maxclass" : "newobj",
					"numinlets" : 2,
					"numoutlets" : 1,
					"outlettype" : [ "signal" ],
					"patching_rect" : [ 402.0, 448.0, 37.0, 22.0 ],
					"text" : "saw~"
				}

			}
, 			{
				"box" : 				{
					"id" : "obj-12",
					"maxclass" : "newobj",
					"numinlets" : 2,
					"numoutlets" : 1,
					"outlettype" : [ "signal" ],
					"patching_rect" : [ 342.0, 448.0, 43.0, 22.0 ],
					"text" : "cycle~"
				}

			}
, 			{
				"box" : 				{
					"attr" : "automatic",
					"id" : "obj-9",
					"maxclass" : "attrui",
					"numinlets" : 1,
					"numoutlets" : 1,
					"outlettype" : [ "" ],
					"parameter_enable" : 0,
					"patching_rect" : [ 546.0, 611.0, 150.0, 22.0 ]
				}

			}
, 			{
				"box" : 				{
					"automatic" : 1,
					"id" : "obj-8",
					"maxclass" : "scope~",
					"numinlets" : 2,
					"numoutlets" : 0,
					"patching_rect" : [ 364.0, 585.0, 130.0, 130.0 ],
					"range" : [ -30.0, 24.0 ],
					"style" : "chiba"
				}

			}
, 			{
				"box" : 				{
					"id" : "obj-7",
					"items" : [ "none", ",", "sine", ",", "sawtooth", ",", "triangle", ",", "square" ],
					"maxclass" : "umenu",
					"numinlets" : 1,
					"numoutlets" : 3,
					"outlettype" : [ "int", "", "" ],
					"parameter_enable" : 0,
					"patching_rect" : [ 107.0, 308.0, 100.0, 22.0 ]
				}

			}
, 			{
				"box" : 				{
					"id" : "obj-6",
					"maxclass" : "ezdac~",
					"numinlets" : 2,
					"numoutlets" : 0,
					"patching_rect" : [ 202.0, 680.0, 45.0, 45.0 ]
				}

			}
, 			{
				"box" : 				{
					"id" : "obj-5",
					"maxclass" : "gain~",
					"multichannelvariant" : 0,
					"numinlets" : 1,
					"numoutlets" : 2,
					"outlettype" : [ "signal", "" ],
					"parameter_enable" : 0,
					"patching_rect" : [ 191.0, 511.0, 22.0, 140.0 ]
				}

			}
 ],
		"lines" : [ 			{
				"patchline" : 				{
					"destination" : [ "obj-16", 1 ],
					"order" : 0,
					"source" : [ "obj-1", 0 ]
				}

			}
, 			{
				"patchline" : 				{
					"destination" : [ "obj-2", 0 ],
					"order" : 1,
					"source" : [ "obj-1", 0 ]
				}

			}
, 			{
				"patchline" : 				{
					"destination" : [ "obj-36", 0 ],
					"source" : [ "obj-1", 1 ]
				}

			}
, 			{
				"patchline" : 				{
					"destination" : [ "obj-31", 0 ],
					"source" : [ "obj-10", 0 ]
				}

			}
, 			{
				"patchline" : 				{
					"destination" : [ "obj-17", 1 ],
					"source" : [ "obj-12", 0 ]
				}

			}
, 			{
				"patchline" : 				{
					"destination" : [ "obj-17", 2 ],
					"source" : [ "obj-13", 0 ]
				}

			}
, 			{
				"patchline" : 				{
					"destination" : [ "obj-17", 4 ],
					"source" : [ "obj-14", 0 ]
				}

			}
, 			{
				"patchline" : 				{
					"destination" : [ "obj-17", 3 ],
					"source" : [ "obj-15", 0 ]
				}

			}
, 			{
				"patchline" : 				{
					"destination" : [ "obj-34", 0 ],
					"source" : [ "obj-17", 0 ]
				}

			}
, 			{
				"patchline" : 				{
					"destination" : [ "obj-12", 0 ],
					"order" : 3,
					"source" : [ "obj-19", 0 ]
				}

			}
, 			{
				"patchline" : 				{
					"destination" : [ "obj-13", 0 ],
					"order" : 2,
					"source" : [ "obj-19", 0 ]
				}

			}
, 			{
				"patchline" : 				{
					"destination" : [ "obj-14", 0 ],
					"order" : 0,
					"source" : [ "obj-19", 0 ]
				}

			}
, 			{
				"patchline" : 				{
					"destination" : [ "obj-15", 0 ],
					"order" : 1,
					"source" : [ "obj-19", 0 ]
				}

			}
, 			{
				"patchline" : 				{
					"destination" : [ "obj-10", 0 ],
					"order" : 1,
					"source" : [ "obj-2", 0 ]
				}

			}
, 			{
				"patchline" : 				{
					"destination" : [ "obj-28", 1 ],
					"order" : 0,
					"source" : [ "obj-2", 0 ]
				}

			}
, 			{
				"patchline" : 				{
					"destination" : [ "obj-14", 1 ],
					"order" : 0,
					"source" : [ "obj-21", 0 ]
				}

			}
, 			{
				"patchline" : 				{
					"destination" : [ "obj-15", 1 ],
					"order" : 1,
					"source" : [ "obj-21", 0 ]
				}

			}
, 			{
				"patchline" : 				{
					"destination" : [ "obj-34", 1 ],
					"source" : [ "obj-29", 0 ]
				}

			}
, 			{
				"patchline" : 				{
					"destination" : [ "obj-29", 0 ],
					"source" : [ "obj-30", 1 ]
				}

			}
, 			{
				"patchline" : 				{
					"destination" : [ "obj-19", 0 ],
					"source" : [ "obj-31", 0 ]
				}

			}
, 			{
				"patchline" : 				{
					"destination" : [ "obj-21", 0 ],
					"source" : [ "obj-33", 0 ]
				}

			}
, 			{
				"patchline" : 				{
					"destination" : [ "obj-5", 0 ],
					"source" : [ "obj-34", 0 ]
				}

			}
, 			{
				"patchline" : 				{
					"destination" : [ "obj-30", 0 ],
					"source" : [ "obj-36", 0 ]
				}

			}
, 			{
				"patchline" : 				{
					"destination" : [ "obj-6", 1 ],
					"order" : 1,
					"source" : [ "obj-5", 0 ]
				}

			}
, 			{
				"patchline" : 				{
					"destination" : [ "obj-6", 0 ],
					"order" : 2,
					"source" : [ "obj-5", 0 ]
				}

			}
, 			{
				"patchline" : 				{
					"destination" : [ "obj-8", 0 ],
					"order" : 0,
					"source" : [ "obj-5", 0 ]
				}

			}
, 			{
				"patchline" : 				{
					"destination" : [ "obj-17", 0 ],
					"source" : [ "obj-7", 0 ]
				}

			}
, 			{
				"patchline" : 				{
					"destination" : [ "obj-8", 0 ],
					"source" : [ "obj-9", 0 ]
				}

			}
 ],
		"parameters" : 		{
			"obj-31" : [ "live.dial", "Freq", 0 ],
			"obj-33" : [ "live.dial[1]", "Amount", 0 ],
			"parameterbanks" : 			{
				"0" : 				{
					"index" : 0,
					"name" : "",
					"parameters" : [ "-", "-", "-", "-", "-", "-", "-", "-" ]
				}

			}
,
			"inherited_shortname" : 1
		}
,
		"dependency_cache" : [  ],
		"autosave" : 0,
		"styles" : [ 			{
				"name" : "MP-M4L",
				"default" : 				{
					"accentcolor" : [ 0.411764705882353, 0.411764705882353, 0.411764705882353, 1.0 ],
					"bgcolor" : [ 0.098039215686275, 0.098039215686275, 0.098039215686275, 1.0 ],
					"bgfillcolor" : 					{
						"color" : [ 0.266666666666667, 0.266666666666667, 0.266666666666667, 1.0 ],
						"color1" : [ 0.376470588235294, 0.384313725490196, 0.4, 1.0 ],
						"color2" : [ 0.290196078431373, 0.309803921568627, 0.301960784313725, 1.0 ],
						"dynamiccolor" : [ 0.266666666666667, 0.266666666666667, 0.266666666666667, 1.0, "live_contrast_frame", 1, 0.266666666666667, 0.266666666666667, 0.266666666666667, 1.0, "Control Border" ],
						"type" : "color"
					}
,
					"color" : [ 0.333333333333333, 0.870588235294118, 0.964705882352941, 1.0 ],
					"editing_bgcolor" : [ 0.56078431372549, 0.56078431372549, 0.56078431372549, 1.0 ],
					"elementcolor" : [ 0.313725490196078, 0.313725490196078, 0.313725490196078, 1.0 ],
					"locked_bgcolor" : [ 0.56078431372549, 0.56078431372549, 0.56078431372549, 1.0 ],
					"patchlinecolor" : [ 0.313725490196078, 0.313725490196078, 0.313725490196078, 1.0 ],
					"selectioncolor" : [ 1.0, 0.694117647058824, 0.0, 1.0 ],
					"stripecolor" : [ 0.313725490196078, 0.313725490196078, 0.313725490196078, 1.0 ],
					"textcolor" : [ 0.0, 0.0, 0.0, 1.0 ]
				}
,
				"parentstyle" : "",
				"multi" : 0
			}
, 			{
				"name" : "rnbodefault",
				"default" : 				{
					"accentcolor" : [ 0.343034118413925, 0.506230533123016, 0.86220508813858, 1.0 ],
					"bgcolor" : [ 0.031372549019608, 0.125490196078431, 0.211764705882353, 1.0 ],
					"bgfillcolor" : 					{
						"angle" : 270.0,
						"autogradient" : 0.0,
						"color" : [ 0.031372549019608, 0.125490196078431, 0.211764705882353, 1.0 ],
						"color1" : [ 0.031372549019608, 0.125490196078431, 0.211764705882353, 1.0 ],
						"color2" : [ 0.263682, 0.004541, 0.038797, 1.0 ],
						"proportion" : 0.39,
						"type" : "color"
					}
,
					"color" : [ 0.929412, 0.929412, 0.352941, 1.0 ],
					"elementcolor" : [ 0.357540726661682, 0.515565991401672, 0.861786782741547, 1.0 ],
					"fontname" : [ "Lato" ],
					"fontsize" : [ 12.0 ],
					"stripecolor" : [ 0.258338063955307, 0.352425158023834, 0.511919498443604, 1.0 ]
				}
,
				"parentstyle" : "",
				"multi" : 0
			}
, 			{
				"name" : "rnbohighcontrast",
				"default" : 				{
					"accentcolor" : [ 0.666666666666667, 0.666666666666667, 0.666666666666667, 1.0 ],
					"bgcolor" : [ 0.0, 0.0, 0.0, 1.0 ],
					"bgfillcolor" : 					{
						"angle" : 270.0,
						"autogradient" : 0.0,
						"color" : [ 0.0, 0.0, 0.0, 1.0 ],
						"color1" : [ 0.090196078431373, 0.090196078431373, 0.090196078431373, 1.0 ],
						"color2" : [ 0.156862745098039, 0.168627450980392, 0.164705882352941, 1.0 ],
						"proportion" : 0.5,
						"type" : "color"
					}
,
					"clearcolor" : [ 1.0, 1.0, 1.0, 0.0 ],
					"color" : [ 1.0, 0.874509803921569, 0.141176470588235, 1.0 ],
					"editing_bgcolor" : [ 0.258823529411765, 0.258823529411765, 0.258823529411765, 1.0 ],
					"elementcolor" : [ 0.223386004567146, 0.254748553037643, 0.998085916042328, 1.0 ],
					"fontsize" : [ 13.0 ],
					"locked_bgcolor" : [ 0.258823529411765, 0.258823529411765, 0.258823529411765, 1.0 ],
					"selectioncolor" : [ 0.301960784313725, 0.694117647058824, 0.949019607843137, 1.0 ],
					"stripecolor" : [ 0.258823529411765, 0.258823529411765, 0.258823529411765, 1.0 ],
					"textcolor" : [ 1.0, 1.0, 1.0, 1.0 ],
					"textcolor_inverse" : [ 1.0, 1.0, 1.0, 1.0 ]
				}
,
				"parentstyle" : "",
				"multi" : 0
			}
, 			{
				"name" : "rnbolight",
				"default" : 				{
					"accentcolor" : [ 0.443137254901961, 0.505882352941176, 0.556862745098039, 1.0 ],
					"bgcolor" : [ 0.796078431372549, 0.862745098039216, 0.925490196078431, 1.0 ],
					"bgfillcolor" : 					{
						"angle" : 270.0,
						"autogradient" : 0.0,
						"color" : [ 0.835294117647059, 0.901960784313726, 0.964705882352941, 1.0 ],
						"color1" : [ 0.031372549019608, 0.125490196078431, 0.211764705882353, 1.0 ],
						"color2" : [ 0.263682, 0.004541, 0.038797, 1.0 ],
						"proportion" : 0.39,
						"type" : "color"
					}
,
					"clearcolor" : [ 0.898039, 0.898039, 0.898039, 1.0 ],
					"color" : [ 0.815686274509804, 0.509803921568627, 0.262745098039216, 1.0 ],
					"editing_bgcolor" : [ 0.898039, 0.898039, 0.898039, 1.0 ],
					"elementcolor" : [ 0.337254901960784, 0.384313725490196, 0.462745098039216, 1.0 ],
					"fontname" : [ "Lato" ],
					"locked_bgcolor" : [ 0.898039, 0.898039, 0.898039, 1.0 ],
					"stripecolor" : [ 0.309803921568627, 0.698039215686274, 0.764705882352941, 1.0 ],
					"textcolor_inverse" : [ 0.0, 0.0, 0.0, 1.0 ]
				}
,
				"parentstyle" : "",
				"multi" : 0
			}
, 			{
				"name" : "rnbomonokai",
				"default" : 				{
					"accentcolor" : [ 0.501960784313725, 0.501960784313725, 0.501960784313725, 1.0 ],
					"bgcolor" : [ 0.0, 0.0, 0.0, 1.0 ],
					"bgfillcolor" : 					{
						"angle" : 270.0,
						"autogradient" : 0.0,
						"color" : [ 0.0, 0.0, 0.0, 1.0 ],
						"color1" : [ 0.031372549019608, 0.125490196078431, 0.211764705882353, 1.0 ],
						"color2" : [ 0.263682, 0.004541, 0.038797, 1.0 ],
						"proportion" : 0.39,
						"type" : "color"
					}
,
					"clearcolor" : [ 0.976470588235294, 0.96078431372549, 0.917647058823529, 1.0 ],
					"color" : [ 0.611764705882353, 0.125490196078431, 0.776470588235294, 1.0 ],
					"editing_bgcolor" : [ 0.976470588235294, 0.96078431372549, 0.917647058823529, 1.0 ],
					"elementcolor" : [ 0.749019607843137, 0.83921568627451, 1.0, 1.0 ],
					"fontname" : [ "Lato" ],
					"locked_bgcolor" : [ 0.976470588235294, 0.96078431372549, 0.917647058823529, 1.0 ],
					"stripecolor" : [ 0.796078431372549, 0.207843137254902, 1.0, 1.0 ],
					"textcolor" : [ 0.129412, 0.129412, 0.129412, 1.0 ]
				}
,
				"parentstyle" : "",
				"multi" : 0
			}
 ]
	}

}
