{
	"patcher" : 	{
		"fileversion" : 1,
		"appversion" : 		{
			"major" : 8,
			"minor" : 5,
			"revision" : 3,
			"architecture" : "x64",
			"modernui" : 1
		}
,
		"classnamespace" : "box",
		"rect" : [ 34.0, 104.0, 2062.0, 1034.0 ],
		"bglocked" : 0,
		"openinpresentation" : 0,
		"default_fontsize" : 12.0,
		"default_fontface" : 0,
		"default_fontname" : "Arial",
		"gridonopen" : 1,
		"gridsize" : [ 15.0, 15.0 ],
		"gridsnaponopen" : 1,
		"objectsnaponopen" : 1,
		"statusbarvisible" : 2,
		"toolbarvisible" : 1,
		"lefttoolbarpinned" : 0,
		"toptoolbarpinned" : 0,
		"righttoolbarpinned" : 0,
		"bottomtoolbarpinned" : 0,
		"toolbars_unpinned_last_save" : 0,
		"tallnewobj" : 0,
		"boxanimatetime" : 200,
		"enablehscroll" : 1,
		"enablevscroll" : 1,
		"devicewidth" : 0.0,
		"description" : "",
		"digest" : "",
		"tags" : "",
		"style" : "",
		"subpatcher_template" : "",
		"assistshowspatchername" : 0,
		"boxes" : [ 			{
				"box" : 				{
					"id" : "obj-70",
					"maxclass" : "message",
					"numinlets" : 2,
					"numoutlets" : 1,
					"outlettype" : [ "" ],
					"patching_rect" : [ 1280.000038146972656, 395.333345115184784, 50.0, 22.0 ],
					"text" : "59"
				}

			}
, 			{
				"box" : 				{
					"id" : "obj-68",
					"maxclass" : "kslider",
					"numinlets" : 2,
					"numoutlets" : 2,
					"outlettype" : [ "int", "int" ],
					"parameter_enable" : 0,
					"patching_rect" : [ 1237.333370208740234, 263.333341181278229, 336.0, 53.0 ]
				}

			}
, 			{
				"box" : 				{
					"id" : "obj-62",
					"linecount" : 2,
					"maxclass" : "message",
					"numinlets" : 2,
					"numoutlets" : 1,
					"outlettype" : [ "" ],
					"patching_rect" : [ 1342.666706681251526, 667.0, 50.0, 35.0 ],
					"text" : "0.464567"
				}

			}
, 			{
				"box" : 				{
					"id" : "obj-60",
					"linecount" : 2,
					"maxclass" : "message",
					"numinlets" : 2,
					"numoutlets" : 1,
					"outlettype" : [ "" ],
					"patching_rect" : [ 1258.666704177856445, 663.333353102207184, 50.0, 35.0 ],
					"text" : "-0.960682"
				}

			}
, 			{
				"box" : 				{
					"annotation" : "## Grab webcam video for VIZZIE input ##",
					"bgmode" : 1,
					"border" : 0,
					"clickthrough" : 0,
					"enablehscroll" : 0,
					"enablevscroll" : 0,
					"id" : "obj-58",
					"lockeddragscroll" : 0,
					"lockedsize" : 0,
					"maxclass" : "bpatcher",
					"name" : "vz.grabbr.maxpat",
					"numinlets" : 2,
					"numoutlets" : 1,
					"offset" : [ 0.0, 0.0 ],
					"outlettype" : [ "jit_gl_texture" ],
					"patching_rect" : [ 42.999996662139893, 587.333352863788605, 346.0, 158.0 ],
					"prototypename" : "pixl",
					"varname" : "grabbr",
					"viewvisibility" : 1
				}

			}
, 			{
				"box" : 				{
					"annotation" : "## Four-input video mixer ##",
					"bgmode" : 1,
					"border" : 0,
					"clickthrough" : 0,
					"enablehscroll" : 0,
					"enablevscroll" : 0,
					"id" : "obj-21",
					"lockeddragscroll" : 0,
					"lockedsize" : 0,
					"maxclass" : "bpatcher",
					"name" : "vz.4mixr.maxpat",
					"numinlets" : 8,
					"numoutlets" : 1,
					"offset" : [ 0.0, 0.0 ],
					"outlettype" : [ "jit_gl_texture" ],
					"patching_rect" : [ 513.999999761581421, 886.999999642372131, 228.0, 130.0 ],
					"prototypename" : "pixl",
					"varname" : "4mixr",
					"viewvisibility" : 1
				}

			}
, 			{
				"box" : 				{
					"annotation" : "## View or monitor video input ##",
					"bgmode" : 1,
					"border" : 0,
					"clickthrough" : 0,
					"enablehscroll" : 0,
					"enablevscroll" : 0,
					"id" : "obj-57",
					"lockeddragscroll" : 0,
					"lockedsize" : 0,
					"maxclass" : "bpatcher",
					"name" : "vz.viewr.maxpat",
					"numinlets" : 1,
					"numoutlets" : 0,
					"offset" : [ 0.0, 0.0 ],
					"patching_rect" : [ 962.0, 722.0, 230.0, 208.0 ],
					"prototypename" : "pixl",
					"varname" : "viewr[1]",
					"viewvisibility" : 1
				}

			}
, 			{
				"box" : 				{
					"id" : "obj-54",
					"linecount" : 2,
					"maxclass" : "message",
					"numinlets" : 2,
					"numoutlets" : 1,
					"outlettype" : [ "" ],
					"patching_rect" : [ 1054.000031411647797, 650.666686058044434, 50.0, 35.0 ],
					"text" : "0.018727"
				}

			}
, 			{
				"box" : 				{
					"annotation" : "## Convert audio input to VIZZIE data output ##",
					"bgmode" : 1,
					"border" : 0,
					"clickthrough" : 0,
					"enablehscroll" : 0,
					"enablevscroll" : 0,
					"id" : "obj-52",
					"lockeddragscroll" : 0,
					"lockedsize" : 0,
					"maxclass" : "bpatcher",
					"name" : "vz.audio2vizzie.maxpat",
					"numinlets" : 1,
					"numoutlets" : 2,
					"offset" : [ 0.0, 0.0 ],
					"outlettype" : [ "", "" ],
					"patching_rect" : [ 962.333335727453232, 578.333332359790802, 110.0, 54.0 ],
					"prototypename" : "pixl",
					"varname" : "audio2vizzie",
					"viewvisibility" : 1
				}

			}
, 			{
				"box" : 				{
					"annotation" : "## Convert BEAP module output (control voltages/MIDI) to VIZZIE data ##",
					"bgmode" : 1,
					"border" : 0,
					"clickthrough" : 0,
					"enablehscroll" : 0,
					"enablevscroll" : 0,
					"id" : "obj-51",
					"lockeddragscroll" : 0,
					"lockedsize" : 0,
					"maxclass" : "bpatcher",
					"name" : "vz.beapconvertr.maxpat",
					"numinlets" : 2,
					"numoutlets" : 2,
					"offset" : [ 0.0, 0.0 ],
					"outlettype" : [ "", "" ],
					"patching_rect" : [ 1280.666706562042236, 539.666664898395538, 108.0, 78.0 ],
					"prototypename" : "pixl",
					"varname" : "beapconvertr",
					"viewvisibility" : 1
				}

			}
, 			{
				"box" : 				{
					"fontface" : 0,
					"fontname" : "Arial",
					"fontsize" : 12.0,
					"id" : "obj-50",
					"maxclass" : "number~",
					"mode" : 2,
					"numinlets" : 2,
					"numoutlets" : 2,
					"outlettype" : [ "signal", "float" ],
					"patching_rect" : [ 1017.333339333534241, 442.666679859161377, 56.0, 22.0 ],
					"sig" : 0.0
				}

			}
, 			{
				"box" : 				{
					"fontface" : 0,
					"fontname" : "Arial",
					"fontsize" : 12.0,
					"id" : "obj-49",
					"maxclass" : "number~",
					"mode" : 2,
					"numinlets" : 2,
					"numoutlets" : 2,
					"outlettype" : [ "signal", "float" ],
					"patching_rect" : [ 951.333337366580963, 442.666679859161377, 56.0, 22.0 ],
					"sig" : 0.0
				}

			}
, 			{
				"box" : 				{
					"fontface" : 0,
					"fontname" : "Arial",
					"fontsize" : 12.0,
					"id" : "obj-48",
					"maxclass" : "number~",
					"mode" : 2,
					"numinlets" : 2,
					"numoutlets" : 2,
					"outlettype" : [ "signal", "float" ],
					"patching_rect" : [ 885.333335399627686, 442.666679859161377, 56.0, 22.0 ],
					"sig" : 0.0
				}

			}
, 			{
				"box" : 				{
					"fontface" : 0,
					"fontname" : "Arial",
					"fontsize" : 12.0,
					"id" : "obj-47",
					"maxclass" : "number~",
					"mode" : 2,
					"numinlets" : 2,
					"numoutlets" : 2,
					"outlettype" : [ "signal", "float" ],
					"patching_rect" : [ 816.666666686534882, 442.666679859161377, 56.0, 22.0 ],
					"sig" : 0.0
				}

			}
, 			{
				"box" : 				{
					"id" : "obj-45",
					"maxclass" : "message",
					"numinlets" : 2,
					"numoutlets" : 1,
					"outlettype" : [ "" ],
					"patching_rect" : [ 1031.333364069461823, 398.00001186132431, 50.0, 22.0 ],
					"text" : "127."
				}

			}
, 			{
				"box" : 				{
					"id" : "obj-43",
					"maxclass" : "message",
					"numinlets" : 2,
					"numoutlets" : 1,
					"outlettype" : [ "" ],
					"patching_rect" : [ 962.333335727453232, 401.333345293998718, 57.333332240581512, 22.0 ],
					"text" : "signal"
				}

			}
, 			{
				"box" : 				{
					"id" : "obj-42",
					"maxclass" : "message",
					"numinlets" : 2,
					"numoutlets" : 1,
					"outlettype" : [ "" ],
					"patching_rect" : [ 895.000000387430191, 401.333345293998718, 57.333332240581512, 22.0 ],
					"text" : "signal"
				}

			}
, 			{
				"box" : 				{
					"id" : "obj-41",
					"maxclass" : "message",
					"numinlets" : 2,
					"numoutlets" : 1,
					"outlettype" : [ "" ],
					"patching_rect" : [ 721.666687339544296, 448.000014066696167, 57.333332240581512, 22.0 ],
					"text" : "signal"
				}

			}
, 			{
				"box" : 				{
					"id" : "obj-40",
					"maxclass" : "message",
					"numinlets" : 2,
					"numoutlets" : 1,
					"outlettype" : [ "" ],
					"patching_rect" : [ 757.333354592323303, 401.333345293998718, 57.333332240581512, 22.0 ],
					"text" : "signal"
				}

			}
, 			{
				"box" : 				{
					"id" : "obj-38",
					"maxclass" : "comment",
					"numinlets" : 1,
					"numoutlets" : 0,
					"patching_rect" : [ 773.333356380462646, 583.333350718021393, 150.0, 20.0 ],
					"text" : "scale"
				}

			}
, 			{
				"box" : 				{
					"id" : "obj-34",
					"maxclass" : "comment",
					"numinlets" : 1,
					"numoutlets" : 0,
					"patching_rect" : [ 675.333353459835052, 292.666675388813019, 150.0, 20.0 ],
					"text" : "math!"
				}

			}
, 			{
				"box" : 				{
					"annotation" : "## Convert video input for use with BEAP modules ##",
					"bgmode" : 1,
					"border" : 0,
					"clickthrough" : 0,
					"enablehscroll" : 0,
					"enablevscroll" : 0,
					"id" : "obj-32",
					"lockeddragscroll" : 0,
					"lockedsize" : 0,
					"maxclass" : "bpatcher",
					"name" : "vz.vizzieconvertr.maxpat",
					"numinlets" : 1,
					"numoutlets" : 5,
					"offset" : [ 0.0, 0.0 ],
					"outlettype" : [ "signal", "signal", "signal", "signal", "" ],
					"patching_rect" : [ 830.666666507720947, 269.33333146572113, 186.0, 108.0 ],
					"varname" : "vizzieconvertr",
					"viewvisibility" : 1
				}

			}
, 			{
				"box" : 				{
					"id" : "obj-31",
					"maxclass" : "gain~",
					"multichannelvariant" : 0,
					"numinlets" : 1,
					"numoutlets" : 2,
					"outlettype" : [ "signal", "" ],
					"parameter_enable" : 0,
					"patching_rect" : [ 745.333354234695435, 772.666689693927765, 114.000003516674042, 31.333330094814301 ]
				}

			}
, 			{
				"box" : 				{
					"id" : "obj-30",
					"maxclass" : "newobj",
					"numinlets" : 3,
					"numoutlets" : 1,
					"outlettype" : [ "signal" ],
					"patching_rect" : [ 758.00002259016037, 734.000021874904633, 101.333335161209106, 22.0 ],
					"text" : "rect~"
				}

			}
, 			{
				"box" : 				{
					"format" : 6,
					"id" : "obj-29",
					"maxclass" : "flonum",
					"numinlets" : 1,
					"numoutlets" : 2,
					"outlettype" : [ "", "bang" ],
					"parameter_enable" : 0,
					"patching_rect" : [ 757.333354592323303, 690.666687250137329, 50.0, 22.0 ]
				}

			}
, 			{
				"box" : 				{
					"id" : "obj-27",
					"maxclass" : "newobj",
					"numinlets" : 6,
					"numoutlets" : 1,
					"outlettype" : [ "" ],
					"patching_rect" : [ 762.666688084602356, 655.333352863788605, 130.0, 22.0 ],
					"text" : "scale 0.7 0.8 440. 880."
				}

			}
, 			{
				"box" : 				{
					"format" : 6,
					"id" : "obj-26",
					"maxclass" : "flonum",
					"numinlets" : 1,
					"numoutlets" : 2,
					"outlettype" : [ "", "bang" ],
					"parameter_enable" : 0,
					"patching_rect" : [ 762.666688084602356, 613.333334445953369, 96.666668057441711, 22.0 ]
				}

			}
, 			{
				"box" : 				{
					"id" : "obj-24",
					"linecount" : 2,
					"maxclass" : "message",
					"numinlets" : 2,
					"numoutlets" : 1,
					"outlettype" : [ "" ],
					"patching_rect" : [ 698.666687488555908, 336.000010013580322, 50.0, 35.0 ],
					"text" : "996.078431"
				}

			}
, 			{
				"box" : 				{
					"format" : 6,
					"id" : "obj-22",
					"maxclass" : "flonum",
					"numinlets" : 1,
					"numoutlets" : 2,
					"outlettype" : [ "", "bang" ],
					"parameter_enable" : 0,
					"patching_rect" : [ 625.333351969718933, 384.000011444091797, 50.0, 22.0 ]
				}

			}
, 			{
				"box" : 				{
					"id" : "obj-17",
					"maxclass" : "newobj",
					"numinlets" : 2,
					"numoutlets" : 1,
					"outlettype" : [ "float" ],
					"patching_rect" : [ 618.500018239021301, 332.666676580905914, 47.0, 22.0 ],
					"text" : "* 1000."
				}

			}
, 			{
				"box" : 				{
					"format" : 6,
					"id" : "obj-15",
					"maxclass" : "flonum",
					"numinlets" : 1,
					"numoutlets" : 2,
					"outlettype" : [ "", "bang" ],
					"parameter_enable" : 0,
					"patching_rect" : [ 612.000018239021301, 285.333341836929321, 50.0, 22.0 ]
				}

			}
, 			{
				"box" : 				{
					"id" : "obj-11",
					"maxclass" : "ezdac~",
					"numinlets" : 2,
					"numoutlets" : 0,
					"patching_rect" : [ 648.000019311904907, 543.333349525928497, 45.0, 45.0 ]
				}

			}
, 			{
				"box" : 				{
					"id" : "obj-10",
					"maxclass" : "gain~",
					"multichannelvariant" : 0,
					"numinlets" : 1,
					"numoutlets" : 2,
					"outlettype" : [ "signal", "" ],
					"parameter_enable" : 0,
					"patching_rect" : [ 634.000018894672394, 484.000014424324036, 88.000001966953278, 21.999996483325958 ]
				}

			}
, 			{
				"box" : 				{
					"id" : "obj-9",
					"maxclass" : "newobj",
					"numinlets" : 2,
					"numoutlets" : 1,
					"outlettype" : [ "signal" ],
					"patching_rect" : [ 628.666685402393341, 442.666679859161377, 43.0, 22.0 ],
					"text" : "cycle~"
				}

			}
, 			{
				"box" : 				{
					"id" : "obj-8",
					"maxclass" : "message",
					"numinlets" : 2,
					"numoutlets" : 1,
					"outlettype" : [ "" ],
					"patching_rect" : [ 640.0, 810.0, 60.0, 22.0 ],
					"text" : "0.92549"
				}

			}
, 			{
				"box" : 				{
					"id" : "obj-5",
					"maxclass" : "message",
					"numinlets" : 2,
					"numoutlets" : 1,
					"outlettype" : [ "" ],
					"patching_rect" : [ 549.5, 810.0, 72.0, 22.0 ],
					"text" : "0.984314"
				}

			}
, 			{
				"box" : 				{
					"id" : "obj-3",
					"maxclass" : "message",
					"numinlets" : 2,
					"numoutlets" : 1,
					"outlettype" : [ "" ],
					"patching_rect" : [ 450.333333075046539, 810.0, 63.0, 22.0 ],
					"text" : "0.996078"
				}

			}
, 			{
				"box" : 				{
					"annotation" : "## Convert R, G, and B video components to VIZZIE data ##",
					"bgmode" : 1,
					"border" : 0,
					"clickthrough" : 0,
					"enablehscroll" : 0,
					"enablevscroll" : 0,
					"id" : "obj-16",
					"lockeddragscroll" : 0,
					"lockedsize" : 0,
					"maxclass" : "bpatcher",
					"name" : "vz.analyzr.maxpat",
					"numinlets" : 5,
					"numoutlets" : 3,
					"offset" : [ 0.0, 0.0 ],
					"outlettype" : [ "", "", "" ],
					"patching_rect" : [ 486.0, 667.0, 208.0, 113.0 ],
					"prototypename" : "pixl",
					"varname" : "analyzr",
					"viewvisibility" : 1
				}

			}
, 			{
				"box" : 				{
					"annotation" : "## VIZZIE video projector interface ##",
					"bgmode" : 1,
					"border" : 0,
					"clickthrough" : 0,
					"enablehscroll" : 0,
					"enablevscroll" : 0,
					"id" : "obj-1",
					"lockeddragscroll" : 0,
					"lockedsize" : 0,
					"maxclass" : "bpatcher",
					"name" : "vz.projectr.maxpat",
					"numinlets" : 4,
					"numoutlets" : 1,
					"offset" : [ 0.0, 0.0 ],
					"outlettype" : [ "" ],
					"patching_rect" : [ 522.0, 1053.000011503696442, 168.0, 108.0 ],
					"prototypename" : "pixl",
					"varname" : "projectr",
					"viewvisibility" : 1
				}

			}
, 			{
				"box" : 				{
					"annotation" : "## Change a video's brightness/contrast/saturation ##",
					"bgmode" : 1,
					"border" : 0,
					"clickthrough" : 0,
					"enablehscroll" : 0,
					"enablevscroll" : 0,
					"id" : "obj-35",
					"lockeddragscroll" : 0,
					"lockedsize" : 0,
					"maxclass" : "bpatcher",
					"name" : "vz.brcosr.maxpat",
					"numinlets" : 7,
					"numoutlets" : 1,
					"offset" : [ 0.0, 0.0 ],
					"outlettype" : [ "jit_gl_texture" ],
					"patching_rect" : [ 240.666666686534882, 224.833341181278229, 208.0, 130.0 ],
					"prototypename" : "pixl",
					"varname" : "brcosr",
					"viewvisibility" : 1
				}

			}
, 			{
				"box" : 				{
					"annotation" : "## View or monitor video input ##",
					"bgmode" : 1,
					"border" : 0,
					"clickthrough" : 0,
					"enablehscroll" : 0,
					"enablevscroll" : 0,
					"id" : "obj-19",
					"lockeddragscroll" : 0,
					"lockedsize" : 0,
					"maxclass" : "bpatcher",
					"name" : "vz.viewr.maxpat",
					"numinlets" : 1,
					"numoutlets" : 0,
					"offset" : [ 0.0, 0.0 ],
					"patching_rect" : [ 286.0, 380.0, 254.0, 218.0 ],
					"prototypename" : "pixl",
					"varname" : "viewr",
					"viewvisibility" : 1
				}

			}
, 			{
				"box" : 				{
					"annotation" : "## The VIZZIE video player/looper ##",
					"bgmode" : 1,
					"border" : 0,
					"clickthrough" : 0,
					"enablehscroll" : 0,
					"enablevscroll" : 0,
					"id" : "obj-6",
					"lockeddragscroll" : 0,
					"lockedsize" : 0,
					"maxclass" : "bpatcher",
					"name" : "vz.playr.maxpat",
					"numinlets" : 7,
					"numoutlets" : 2,
					"offset" : [ 0.0, 0.0 ],
					"outlettype" : [ "jit_gl_texture", "" ],
					"patching_rect" : [ 245.0, -2.0, 348.0, 158.0 ],
					"prototypename" : "pixl",
					"varname" : "playr",
					"viewvisibility" : 1
				}

			}
 ],
		"lines" : [ 			{
				"patchline" : 				{
					"destination" : [ "obj-11", 1 ],
					"order" : 0,
					"source" : [ "obj-10", 0 ]
				}

			}
, 			{
				"patchline" : 				{
					"destination" : [ "obj-11", 0 ],
					"order" : 1,
					"source" : [ "obj-10", 0 ]
				}

			}
, 			{
				"patchline" : 				{
					"destination" : [ "obj-17", 0 ],
					"source" : [ "obj-15", 0 ]
				}

			}
, 			{
				"patchline" : 				{
					"destination" : [ "obj-15", 0 ],
					"order" : 0,
					"source" : [ "obj-16", 0 ]
				}

			}
, 			{
				"patchline" : 				{
					"destination" : [ "obj-26", 0 ],
					"order" : 0,
					"source" : [ "obj-16", 2 ]
				}

			}
, 			{
				"patchline" : 				{
					"destination" : [ "obj-3", 1 ],
					"order" : 1,
					"source" : [ "obj-16", 0 ]
				}

			}
, 			{
				"patchline" : 				{
					"destination" : [ "obj-5", 1 ],
					"source" : [ "obj-16", 1 ]
				}

			}
, 			{
				"patchline" : 				{
					"destination" : [ "obj-8", 1 ],
					"order" : 1,
					"source" : [ "obj-16", 2 ]
				}

			}
, 			{
				"patchline" : 				{
					"destination" : [ "obj-22", 0 ],
					"order" : 1,
					"source" : [ "obj-17", 0 ]
				}

			}
, 			{
				"patchline" : 				{
					"destination" : [ "obj-24", 1 ],
					"order" : 0,
					"source" : [ "obj-17", 0 ]
				}

			}
, 			{
				"patchline" : 				{
					"destination" : [ "obj-1", 0 ],
					"source" : [ "obj-21", 0 ]
				}

			}
, 			{
				"patchline" : 				{
					"destination" : [ "obj-9", 0 ],
					"source" : [ "obj-22", 0 ]
				}

			}
, 			{
				"patchline" : 				{
					"destination" : [ "obj-27", 0 ],
					"source" : [ "obj-26", 0 ]
				}

			}
, 			{
				"patchline" : 				{
					"destination" : [ "obj-29", 0 ],
					"source" : [ "obj-27", 0 ]
				}

			}
, 			{
				"patchline" : 				{
					"destination" : [ "obj-30", 0 ],
					"source" : [ "obj-29", 0 ]
				}

			}
, 			{
				"patchline" : 				{
					"destination" : [ "obj-31", 0 ],
					"source" : [ "obj-30", 0 ]
				}

			}
, 			{
				"patchline" : 				{
					"destination" : [ "obj-11", 1 ],
					"order" : 0,
					"source" : [ "obj-31", 0 ]
				}

			}
, 			{
				"patchline" : 				{
					"destination" : [ "obj-11", 0 ],
					"order" : 1,
					"source" : [ "obj-31", 0 ]
				}

			}
, 			{
				"patchline" : 				{
					"destination" : [ "obj-51", 0 ],
					"order" : 2,
					"source" : [ "obj-31", 0 ]
				}

			}
, 			{
				"patchline" : 				{
					"destination" : [ "obj-52", 0 ],
					"order" : 3,
					"source" : [ "obj-31", 0 ]
				}

			}
, 			{
				"patchline" : 				{
					"destination" : [ "obj-40", 1 ],
					"order" : 1,
					"source" : [ "obj-32", 0 ]
				}

			}
, 			{
				"patchline" : 				{
					"destination" : [ "obj-41", 1 ],
					"order" : 1,
					"source" : [ "obj-32", 1 ]
				}

			}
, 			{
				"patchline" : 				{
					"destination" : [ "obj-42", 1 ],
					"order" : 1,
					"source" : [ "obj-32", 2 ]
				}

			}
, 			{
				"patchline" : 				{
					"destination" : [ "obj-43", 1 ],
					"order" : 1,
					"source" : [ "obj-32", 3 ]
				}

			}
, 			{
				"patchline" : 				{
					"destination" : [ "obj-45", 1 ],
					"source" : [ "obj-32", 4 ]
				}

			}
, 			{
				"patchline" : 				{
					"destination" : [ "obj-47", 0 ],
					"order" : 0,
					"source" : [ "obj-32", 0 ]
				}

			}
, 			{
				"patchline" : 				{
					"destination" : [ "obj-48", 0 ],
					"order" : 0,
					"source" : [ "obj-32", 1 ]
				}

			}
, 			{
				"patchline" : 				{
					"destination" : [ "obj-49", 0 ],
					"order" : 0,
					"source" : [ "obj-32", 2 ]
				}

			}
, 			{
				"patchline" : 				{
					"destination" : [ "obj-50", 0 ],
					"order" : 0,
					"source" : [ "obj-32", 3 ]
				}

			}
, 			{
				"patchline" : 				{
					"destination" : [ "obj-19", 0 ],
					"order" : 2,
					"source" : [ "obj-35", 0 ]
				}

			}
, 			{
				"patchline" : 				{
					"destination" : [ "obj-21", 0 ],
					"order" : 0,
					"source" : [ "obj-35", 0 ]
				}

			}
, 			{
				"patchline" : 				{
					"destination" : [ "obj-32", 0 ],
					"order" : 1,
					"source" : [ "obj-35", 0 ]
				}

			}
, 			{
				"patchline" : 				{
					"destination" : [ "obj-35", 2 ],
					"order" : 1,
					"source" : [ "obj-51", 0 ]
				}

			}
, 			{
				"patchline" : 				{
					"destination" : [ "obj-60", 1 ],
					"order" : 0,
					"source" : [ "obj-51", 0 ]
				}

			}
, 			{
				"patchline" : 				{
					"destination" : [ "obj-62", 1 ],
					"source" : [ "obj-51", 1 ]
				}

			}
, 			{
				"patchline" : 				{
					"destination" : [ "obj-21", 1 ],
					"order" : 0,
					"source" : [ "obj-52", 0 ]
				}

			}
, 			{
				"patchline" : 				{
					"destination" : [ "obj-54", 1 ],
					"source" : [ "obj-52", 1 ]
				}

			}
, 			{
				"patchline" : 				{
					"destination" : [ "obj-57", 0 ],
					"order" : 1,
					"source" : [ "obj-52", 0 ]
				}

			}
, 			{
				"patchline" : 				{
					"destination" : [ "obj-16", 0 ],
					"order" : 1,
					"source" : [ "obj-58", 0 ]
				}

			}
, 			{
				"patchline" : 				{
					"destination" : [ "obj-21", 2 ],
					"order" : 0,
					"source" : [ "obj-58", 0 ]
				}

			}
, 			{
				"patchline" : 				{
					"destination" : [ "obj-35", 0 ],
					"source" : [ "obj-6", 0 ]
				}

			}
, 			{
				"patchline" : 				{
					"destination" : [ "obj-51", 1 ],
					"order" : 1,
					"source" : [ "obj-68", 0 ]
				}

			}
, 			{
				"patchline" : 				{
					"destination" : [ "obj-70", 1 ],
					"order" : 0,
					"source" : [ "obj-68", 0 ]
				}

			}
, 			{
				"patchline" : 				{
					"destination" : [ "obj-10", 0 ],
					"source" : [ "obj-9", 0 ]
				}

			}
 ],
		"parameters" : 		{
			"obj-16::obj-1" : [ "textbutton[2]", "textbutton[1]", 0 ],
			"obj-16::obj-17" : [ "pictctrl[36]", "pictctrl[1]", 0 ],
			"obj-16::obj-19" : [ "pictctrl[35]", "pictctrl[1]", 0 ],
			"obj-16::obj-2::obj-23" : [ "gswitch2[4]", "gswitch2", 0 ],
			"obj-16::obj-44" : [ "Red mode", "Red mode", 0 ],
			"obj-16::obj-46" : [ "pictctrl[34]", "pictctrl[1]", 0 ],
			"obj-16::obj-48" : [ "Green mode", "Green mode", 0 ],
			"obj-16::obj-50" : [ "pictctrl[5]", "pictctrl[1]", 0 ],
			"obj-16::obj-54" : [ "Blue mode", "Blue mode", 0 ],
			"obj-16::obj-58" : [ "pictctrl[29]", "pictctrl[1]", 0 ],
			"obj-16::obj-6" : [ "pictctrl[37]", "pictctrl[1]", 0 ],
			"obj-16::obj-65" : [ "pictctrl[84]", "pictctrl[1]", 0 ],
			"obj-19::obj-20" : [ "letterbox_menu", "letterbox_menu", 0 ],
			"obj-19::obj-37" : [ "aspect_menu", "aspect_menu", 0 ],
			"obj-1::obj-12" : [ "Fullscreen", "Fullscreen", 0 ],
			"obj-1::obj-16" : [ "Toggle display", "Toggle display", 0 ],
			"obj-1::obj-1::obj-23" : [ "gswitch2[3]", "gswitch2", 0 ],
			"obj-1::obj-2" : [ "pictctrl[3]", "pictctrl[1]", 0 ],
			"obj-1::obj-3" : [ "toggle", "toggle", 0 ],
			"obj-1::obj-41" : [ "pictctrl[7]", "pictctrl[1]", 0 ],
			"obj-1::obj-50" : [ "pictctrl[4]", "pictctrl[1]", 0 ],
			"obj-1::obj-6" : [ "live.toggle[1]", "live.toggle", 0 ],
			"obj-21::obj-1" : [ "range[6]", "range", 0 ],
			"obj-21::obj-22" : [ "pictctrl[8]", "pictctrl[1]", 0 ],
			"obj-21::obj-26" : [ "pictctrl[48]", "pictctrl[1]", 0 ],
			"obj-21::obj-29" : [ "pictctrl[49]", "pictctrl[1]", 0 ],
			"obj-21::obj-35" : [ "Mix 4", "Mix 4", 0 ],
			"obj-21::obj-36" : [ "Mix 2", "Mix 2", 0 ],
			"obj-21::obj-37" : [ "Mix 1", "Mix 1", 0 ],
			"obj-21::obj-51" : [ "pictctrl[6]", "pictctrl[1]", 0 ],
			"obj-21::obj-55::obj-23" : [ "gswitch2[6]", "gswitch2", 0 ],
			"obj-21::obj-57" : [ "Mix 3", "Mix 3", 0 ],
			"obj-21::obj-59::obj-23" : [ "gswitch2[7]", "gswitch2", 0 ],
			"obj-21::obj-60::obj-23" : [ "gswitch2[8]", "gswitch2", 0 ],
			"obj-21::obj-67::obj-23" : [ "gswitch2[9]", "gswitch2", 0 ],
			"obj-32::obj-14" : [ "umenu[3]", "umenu", 0 ],
			"obj-32::obj-22" : [ "range[7]", "range", 0 ],
			"obj-32::obj-24" : [ "pictctrl[73]", "pictctrl[6]", 0 ],
			"obj-32::obj-30" : [ "pictctrl[71]", "pictctrl[5]", 0 ],
			"obj-32::obj-32" : [ "pictctrl[72]", "pictctrl[7]", 0 ],
			"obj-32::obj-39" : [ "pictctrl[74]", "pictctrl[8]", 0 ],
			"obj-32::obj-41" : [ "pictctrl[70]", "pictctrl[10]", 0 ],
			"obj-32::obj-52::obj-23" : [ "gswitch2[5]", "gswitch2", 0 ],
			"obj-32::obj-94" : [ "umenu[2]", "umenu", 0 ],
			"obj-35::obj-104" : [ "pictctrl[9]", "pictctrl[1]", 0 ],
			"obj-35::obj-119" : [ "Brightness", "Brightness", 0 ],
			"obj-35::obj-120" : [ "Brightness range", "Brightness range", 1 ],
			"obj-35::obj-121" : [ "Offset[2]", "Brightness", 0 ],
			"obj-35::obj-127" : [ "Contrast", "Contrast", 0 ],
			"obj-35::obj-128" : [ "Contrast range", "Contrast range", 1 ],
			"obj-35::obj-129" : [ "contrast", "Contrast", 0 ],
			"obj-35::obj-140" : [ "Saturation", "Saturation", 0 ],
			"obj-35::obj-141" : [ "Saturation range", "Saturation range", 1 ],
			"obj-35::obj-142" : [ "saturation[1]", "Saturation", 0 ],
			"obj-35::obj-147" : [ "pictctrl[44]", "pictctrl[1]", 0 ],
			"obj-35::obj-148" : [ "pictctrl[43]", "pictctrl[1]", 0 ],
			"obj-35::obj-149" : [ "pictctrl[42]", "pictctrl[1]", 0 ],
			"obj-35::obj-150" : [ "pictctrl[28]", "pictctrl[1]", 0 ],
			"obj-35::obj-151" : [ "pictctrl[27]", "pictctrl[1]", 0 ],
			"obj-35::obj-56::obj-23" : [ "gswitch2[2]", "gswitch2", 0 ],
			"obj-35::obj-6" : [ "range[5]", "range", 0 ],
			"obj-51::obj-39" : [ "pictctrl[45]", "pictctrl[1]", 0 ],
			"obj-51::obj-6" : [ "pictctrl[12]", "pictctrl[1]", 0 ],
			"obj-51::obj-64" : [ "umenu[4]", "umenu", 0 ],
			"obj-52::obj-11" : [ "pictctrl[47]", "pictctrl[1]", 0 ],
			"obj-52::obj-14" : [ "pictctrl[46]", "pictctrl[1]", 0 ],
			"obj-52::obj-22" : [ "range[3]", "range", 0 ],
			"obj-57::obj-20" : [ "letterbox_menu[1]", "letterbox_menu", 0 ],
			"obj-57::obj-37" : [ "aspect_menu[1]", "aspect_menu", 0 ],
			"obj-58::obj-38" : [ "pictctrl[76]", "pictctrl[1]", 0 ],
			"obj-58::obj-39" : [ "pictctrl[75]", "pictctrl[1]", 0 ],
			"obj-58::obj-64::obj-18" : [ "vdevnum", "vdevnum", 0 ],
			"obj-58::obj-64::obj-29" : [ "formatnum", "formatnum", 10 ],
			"obj-58::obj-64::obj-40" : [ "Mirror state", "Mirror state", 0 ],
			"obj-58::obj-64::obj-5" : [ "Available devices", "Available devices", 0 ],
			"obj-6::obj-10" : [ "pictctrl[1]", "pictctrl[1]", 0 ],
			"obj-6::obj-112::obj-119" : [ "Speed high", "Speed high", 0 ],
			"obj-6::obj-112::obj-120" : [ "Rate range", "Rate range", 0 ],
			"obj-6::obj-112::obj-121" : [ "Speed low", "Speed low", 0 ],
			"obj-6::obj-112::obj-16" : [ "Playback range", "Playback range", 0 ],
			"obj-6::obj-112::obj-40" : [ "Playback controls", "Playback controls", 0 ],
			"obj-6::obj-112::obj-79" : [ "Playback position", "Playback position", 0 ],
			"obj-6::obj-112::obj-89" : [ "Reset range", "Reset range", 0 ],
			"obj-6::obj-112::obj-92" : [ "Reset speed", "Reset speed", 0 ],
			"obj-6::obj-20" : [ "pictctrl[2]", "pictctrl[1]", 0 ],
			"obj-6::obj-28" : [ "pictctrl[279]", "pictctrl[1]", 0 ],
			"obj-6::obj-40" : [ "pictctrl[283]", "pictctrl[1]", 0 ],
			"obj-6::obj-51" : [ "moviepath", "moviepath", 0 ],
			"obj-6::obj-60" : [ "pictctrl[282]", "pictctrl[1]", 0 ],
			"obj-6::obj-64" : [ "pictctrl[284]", "pictctrl[1]", 0 ],
			"obj-6::obj-81" : [ "pictctrl[281]", "pictctrl[1]", 0 ],
			"obj-6::obj-83" : [ "pictctrl[280]", "pictctrl[1]", 0 ],
			"obj-6::obj-89" : [ "moviename", "moviename", 0 ],
			"parameterbanks" : 			{

			}
,
			"parameter_overrides" : 			{
				"obj-16::obj-50" : 				{
					"parameter_longname" : "pictctrl[5]"
				}
,
				"obj-16::obj-58" : 				{
					"parameter_longname" : "pictctrl[29]"
				}
,
				"obj-1::obj-2" : 				{
					"parameter_longname" : "pictctrl[3]"
				}
,
				"obj-1::obj-50" : 				{
					"parameter_longname" : "pictctrl[4]"
				}
,
				"obj-21::obj-22" : 				{
					"parameter_longname" : "pictctrl[8]"
				}
,
				"obj-21::obj-26" : 				{
					"parameter_longname" : "pictctrl[48]"
				}
,
				"obj-21::obj-29" : 				{
					"parameter_longname" : "pictctrl[49]"
				}
,
				"obj-51::obj-39" : 				{
					"parameter_longname" : "pictctrl[45]"
				}
,
				"obj-52::obj-11" : 				{
					"parameter_longname" : "pictctrl[47]"
				}
,
				"obj-52::obj-14" : 				{
					"parameter_longname" : "pictctrl[46]"
				}
,
				"obj-57::obj-20" : 				{
					"parameter_longname" : "letterbox_menu[1]"
				}
,
				"obj-57::obj-37" : 				{
					"parameter_longname" : "aspect_menu[1]"
				}
,
				"obj-58::obj-38" : 				{
					"parameter_longname" : "pictctrl[76]"
				}
,
				"obj-58::obj-39" : 				{
					"parameter_longname" : "pictctrl[75]"
				}

			}
,
			"inherited_shortname" : 1
		}
,
		"dependency_cache" : [ 			{
				"name" : "4-input-mixer.genjit",
				"bootpath" : "C74:/packages/Vizzie/patchers/gen",
				"type" : "gJIT",
				"implicit" : 1
			}
, 			{
				"name" : "brcosa.genjit",
				"bootpath" : "~/Library/Application Support/Cycling '74/Max 8/Examples/jitter-examples/gen",
				"patcherrelativepath" : "../../../../Library/Application Support/Cycling '74/Max 8/Examples/jitter-examples/gen",
				"type" : "gJIT",
				"implicit" : 1
			}
, 			{
				"name" : "data-handler.maxpat",
				"bootpath" : "C74:/packages/Vizzie/patchers/utils",
				"type" : "JSON",
				"implicit" : 1
			}
, 			{
				"name" : "exact_menu.maxpat",
				"bootpath" : "C74:/packages/Vizzie/patchers/utils",
				"type" : "JSON",
				"implicit" : 1
			}
, 			{
				"name" : "grabbr_controls.maxpat",
				"bootpath" : "C74:/packages/Vizzie/patchers/utils",
				"type" : "JSON",
				"implicit" : 1
			}
, 			{
				"name" : "lo_hi_UI_control.maxpat",
				"bootpath" : "C74:/packages/Vizzie/patchers/utils",
				"type" : "JSON",
				"implicit" : 1
			}
, 			{
				"name" : "playr_controls.maxpat",
				"bootpath" : "C74:/packages/Vizzie/patchers/utils",
				"type" : "JSON",
				"implicit" : 1
			}
, 			{
				"name" : "snapshot_UI.maxpat",
				"bootpath" : "C74:/packages/Vizzie/patchers/utils",
				"type" : "JSON",
				"implicit" : 1
			}
, 			{
				"name" : "video-handler.maxpat",
				"bootpath" : "C74:/packages/Vizzie/patchers/utils",
				"type" : "JSON",
				"implicit" : 1
			}
, 			{
				"name" : "vizzie-datatexconvert.js",
				"bootpath" : "C74:/packages/Vizzie/code",
				"type" : "TEXT",
				"implicit" : 1
			}
, 			{
				"name" : "vizzie-global.js",
				"bootpath" : "C74:/packages/Vizzie/code",
				"type" : "TEXT",
				"implicit" : 1
			}
, 			{
				"name" : "vz.4mixr.maxpat",
				"bootpath" : "C74:/packages/Vizzie/patchers",
				"type" : "JSON",
				"implicit" : 1
			}
, 			{
				"name" : "vz.analyzr.maxpat",
				"bootpath" : "C74:/packages/Vizzie/patchers",
				"type" : "JSON",
				"implicit" : 1
			}
, 			{
				"name" : "vz.audio2vizzie.maxpat",
				"bootpath" : "C74:/packages/Vizzie/patchers",
				"type" : "JSON",
				"implicit" : 1
			}
, 			{
				"name" : "vz.beapconvertr.maxpat",
				"bootpath" : "C74:/packages/Vizzie/patchers",
				"type" : "JSON",
				"implicit" : 1
			}
, 			{
				"name" : "vz.brcosr.maxpat",
				"bootpath" : "C74:/packages/Vizzie/patchers",
				"type" : "JSON",
				"implicit" : 1
			}
, 			{
				"name" : "vz.grabbr.maxpat",
				"bootpath" : "C74:/packages/Vizzie/patchers",
				"type" : "JSON",
				"implicit" : 1
			}
, 			{
				"name" : "vz.playr.maxpat",
				"bootpath" : "C74:/packages/Vizzie/patchers",
				"type" : "JSON",
				"implicit" : 1
			}
, 			{
				"name" : "vz.projectr.maxpat",
				"bootpath" : "C74:/packages/Vizzie/patchers",
				"type" : "JSON",
				"implicit" : 1
			}
, 			{
				"name" : "vz.viewr.maxpat",
				"bootpath" : "C74:/packages/Vizzie/patchers",
				"type" : "JSON",
				"implicit" : 1
			}
, 			{
				"name" : "vz.vizzieconvertr.maxpat",
				"bootpath" : "C74:/packages/Vizzie/patchers",
				"type" : "JSON",
				"implicit" : 1
			}
, 			{
				"name" : "vzgl-blackframe.maxpat",
				"bootpath" : "C74:/packages/Vizzie/patchers/utils",
				"type" : "JSON",
				"implicit" : 1
			}
, 			{
				"name" : "vzgl-context.maxpat",
				"bootpath" : "C74:/packages/Vizzie/patchers/utils",
				"type" : "JSON",
				"implicit" : 1
			}
, 			{
				"name" : "vzgl-disable.maxpat",
				"bootpath" : "C74:/packages/Vizzie/patchers/utils",
				"type" : "JSON",
				"implicit" : 1
			}
, 			{
				"name" : "vzgl-object.maxpat",
				"bootpath" : "C74:/packages/Vizzie/patchers/utils",
				"type" : "JSON",
				"implicit" : 1
			}
, 			{
				"name" : "vzgl-outputdim.maxpat",
				"bootpath" : "C74:/packages/Vizzie/patchers/utils",
				"type" : "JSON",
				"implicit" : 1
			}
, 			{
				"name" : "vzgl-pwindow.maxpat",
				"bootpath" : "C74:/packages/Vizzie/patchers/utils",
				"type" : "JSON",
				"implicit" : 1
			}
, 			{
				"name" : "windowresize.js",
				"bootpath" : "C74:/packages/Vizzie/code",
				"type" : "TEXT",
				"implicit" : 1
			}
 ],
		"autosave" : 0
	}

}
